<svg width="150" height="155" viewBox="0 0 150 155" fill="none" xmlns="http://www.w3.org/2000/svg">
<path d="M5.36151 154.401C11.314 151.996 17.0121 149.314 22.7223 146.367C27.8786 143.929 34.0965 141.535 38.5132 137.735C40.9927 135.714 38.7966 131.1 35.5663 132.025C35.5663 132.025 35.3008 132.014 35.2895 132.28C34.5159 131.715 34.0073 131.161 33.2455 130.331C33.2568 130.066 33.0145 129.523 33.0258 129.258C32.7831 128.716 32.2749 128.162 31.7663 127.609C40.0755 113.605 47.8539 99.5783 57.4448 86.6928C60.269 82.8249 63.3477 79.2337 66.9451 75.9306C74.8604 89.8297 87.9938 106.079 104.84 103.873C127.04 100.833 116.104 76.7009 105.032 68.2505C91.9146 57.852 80.2136 57.8841 68.1385 66.675C63.2155 57.4241 59.9299 47.18 60.8806 37.3818C62.6856 13.7936 84.089 10.7195 101.611 17.5835C98.6625 24.371 97.5262 32.2991 98.824 39.2685C100.945 51.8564 119.579 63.8201 131.101 55.5373C142.357 47.2432 122.872 24.0754 116.429 19.2795C114.628 17.8731 112.561 16.4557 110.483 15.3034C110.76 15.0493 110.772 14.7834 111.048 14.5298C124.074 -4.05892 139.561 13.0884 146.415 26.9421C147.386 29.1108 150.385 27.3775 149.679 25.2202C144.175 10.8923 132.404 -6.0963 115.274 2.74467C111.191 4.96342 107.593 8.26649 105.023 12.4112C90.6744 5.94857 73.6872 5.22316 62.5042 18.0407C49.0841 33.4217 56.1621 54.4643 63.9981 70.2213C63.7217 70.4754 63.7217 70.4754 63.4446 70.7294C47.6923 84.6814 37.5186 104.987 27.1701 123.158C25.3689 121.752 23.3018 120.334 21.501 118.928C20.2074 118.075 18.3382 118.261 17.2316 119.277C9.14912 127.973 2.8452 138.606 0.477222 150.47C-0.44368 153.355 2.3848 155.603 5.36151 154.401ZM78.2012 67.637C88.5365 62.2285 98.3163 69.8255 105.453 77.0437C114.888 86.4873 111.611 100.972 96.6067 97.4059C88.9776 95.4847 83.1677 88.3231 78.3628 82.534C75.8333 79.501 73.326 75.9377 71.0959 72.1198C73.2986 70.3521 75.7558 68.8616 78.2012 67.637ZM107.337 20.487C114.344 24.5085 119.426 30.044 123.389 36.8603C125.123 39.8593 126.579 43.1123 127.228 46.5967C129.497 55.7343 115.357 50.6101 111.72 48.5935C101.873 42.589 103.213 29.883 107.337 20.487ZM20.122 126.314C20.3874 126.325 20.376 126.591 20.6415 126.602C20.6074 127.398 21.1047 128.217 22.1433 128.793C23.9672 129.669 25.7798 130.81 27.5928 131.951C28.3664 132.516 29.8909 134.176 29.9136 133.645C29.9022 133.911 30.1563 134.188 30.4217 134.199C27.4346 135.667 24.4239 137.665 21.4367 139.133C17.6302 141.098 13.5582 143.051 9.48583 145.005C11.6262 138.448 15.36 131.96 20.122 126.314Z" fill="#EA651B"/>
</svg>
