<svg width="162" height="63" viewBox="0 0 162 63" fill="none" xmlns="http://www.w3.org/2000/svg">
<path d="M14 14.672C17.36 14.672 19.9173 15.6427 21.672 17.584C23.464 19.488 24.36 22.344 24.36 26.152V38.192C24.36 42 23.464 44.8747 21.672 46.816C19.9173 48.72 17.36 49.672 14 49.672C10.64 49.672 8.064 48.72 6.272 46.816C4.51733 44.8747 3.64 42 3.64 38.192V26.152C3.64 22.344 4.51733 19.488 6.272 17.584C8.064 15.6427 10.64 14.672 14 14.672ZM14 18.704C10.2667 18.704 8.4 21.0373 8.4 25.704V38.64C8.4 43.3067 10.2667 45.64 14 45.64C17.7333 45.64 19.6 43.3067 19.6 38.64V25.704C19.6 21.0373 17.7333 18.704 14 18.704ZM40.88 14.672C43.8667 14.672 46.2 15.4373 47.88 16.968C49.5973 18.4987 50.456 20.6827 50.456 23.52V23.8C50.456 25.4427 50.1387 26.88 49.504 28.112C48.9067 29.344 48.0107 30.3147 46.816 31.024C48.4213 31.7707 49.6533 32.816 50.512 34.16C51.3707 35.504 51.8 37.128 51.8 39.032V39.872C51.8 42.9707 50.848 45.3787 48.944 47.096C47.0773 48.8133 44.3893 49.672 40.88 49.672C37.3707 49.672 34.664 48.8133 32.76 47.096C30.8933 45.3787 29.96 42.9707 29.96 39.872V39.032C29.96 35.1493 31.6213 32.48 34.944 31.024C33.7493 30.3147 32.8347 29.344 32.2 28.112C31.6027 26.88 31.304 25.4427 31.304 23.8V23.52C31.304 20.72 32.144 18.5547 33.824 17.024C35.5413 15.456 37.8933 14.672 40.88 14.672ZM40.88 18.368C37.5947 18.368 35.952 19.992 35.952 23.24V24.304C35.952 26.0587 36.3253 27.328 37.072 28.112C37.8187 28.8587 39.088 29.232 40.88 29.232C42.672 29.232 43.9413 28.8587 44.688 28.112C45.4347 27.328 45.808 26.0587 45.808 24.304V23.24C45.808 21.56 45.3973 20.328 44.576 19.544C43.792 18.76 42.56 18.368 40.88 18.368ZM40.88 32.928C38.9387 32.928 37.4267 33.4507 36.344 34.496C35.2613 35.5413 34.72 37.016 34.72 38.92V40.32C34.72 41.9627 35.2427 43.2693 36.288 44.24C37.3707 45.2107 38.9013 45.696 40.88 45.696C42.8587 45.696 44.3707 45.2107 45.416 44.24C46.4987 43.2693 47.04 41.9627 47.04 40.32V38.92C47.04 37.016 46.4987 35.5413 45.416 34.496C44.3333 33.4507 42.8213 32.928 40.88 32.928Z" fill="#EA651B"/>
<path fill-rule="evenodd" clip-rule="evenodd" d="M60 49V31.5V14H70.2575H79.4882H80.515H83.913H88.2875V27.4338V40.8162H93.6677H98.9976V44.9338V49H89.2429H79.4882V47H79.5V25H79.4882V22.1324H74.632H68.7993V25.2206V28.2574H74.1795H76.5V36.0294H74.1795H68.7993V42.5147V49H64.4248H60ZM102.636 42.6691V49H107.061H111.435V42.6691V36.3382C113.212 32.6667 115.022 28.9436 116.866 25.1691C117.354 24.1704 117.839 23.1753 118.322 22.1838H120.92H124.792V35.6176V49H129.217H133.591V35.6176V22.1838H137.463H137.764H141.284H141.636H145.508V35.6176V49H149.932H154.307V35.6176V22.1838H158.179H162V18.1176V14H149.882H141.284H137.764H129.166H122.296H117.67H117.048H113.044C112.072 16.0931 111.083 18.2034 110.078 20.3309C109.072 22.424 108.083 24.5172 107.111 26.6103C106.139 24.5172 105.133 22.424 104.094 20.3309C103.088 18.2034 102.1 16.0931 101.127 14H96.4512H91.775C93.5517 17.6716 95.3618 21.3946 97.2055 25.1691C99.0491 28.9436 100.859 32.6667 102.636 36.3382V42.6691Z" fill="#3B3D3E"/>
</svg>
