<svg width="59" height="60" viewBox="0 0 59 60" fill="none" xmlns="http://www.w3.org/2000/svg">
<path d="M20.4839 14.606C20.3144 15.1277 20.4812 15.6868 20.9087 16.0305L24.7154 19.0902L23.4341 23.8032C23.2903 24.3323 23.484 24.8827 23.928 25.2056C24.3721 25.5278 24.9551 25.542 25.4141 25.2417L29.5003 22.5667L33.5866 25.2418C33.807 25.3859 34.0557 25.4576 34.3041 25.4576C34.5732 25.4576 34.8419 25.3734 35.0724 25.2056C35.5166 24.883 35.7105 24.3323 35.5663 23.8032L34.285 19.0903L38.0915 16.0308C38.5194 15.6871 38.6862 15.1279 38.5166 14.606C38.3471 14.084 37.8834 13.7297 37.3355 13.7031L32.4574 13.4653L30.7238 8.8995C30.5292 8.38659 30.0488 8.05506 29.5002 8.05506C28.9516 8.05506 28.4711 8.38647 28.2766 8.89938L26.543 13.4654L21.6652 13.7031C21.1171 13.7297 20.6534 14.084 20.4839 14.606ZM26.9825 15.2898C27.5024 15.2645 27.9577 14.9336 28.1422 14.4471L29.5001 10.8708L30.8579 14.4474C31.0428 14.9338 31.4982 15.2645 32.0176 15.2898L35.8384 15.4761L32.8566 17.8727C32.4509 18.1989 32.2771 18.7342 32.4137 19.2361L33.4172 22.9275L30.2166 20.8322C29.9989 20.6898 29.7494 20.6186 29.4999 20.6186C29.2505 20.6186 29.0008 20.6899 28.783 20.8323L25.5825 22.9275L26.5861 19.2363C26.7227 18.734 26.5489 18.1987 26.143 17.8727L23.1614 15.4763L26.9825 15.2898ZM28.5782 5.05736V1.67431C28.5782 1.16521 28.991 0.752441 29.5001 0.752441C30.0091 0.752441 30.4219 1.16521 30.4219 1.67431V5.05736C30.4219 5.56646 30.0091 5.97923 29.5001 5.97923C28.991 5.97923 28.5782 5.56646 28.5782 5.05736ZM34.1922 10.5192C33.8515 10.1409 33.8821 9.55794 34.2604 9.21731L38.0302 5.82274C38.4086 5.482 38.9915 5.51253 39.3322 5.89096C39.6728 6.26928 39.6423 6.85225 39.264 7.19288L35.4941 10.5874C35.3179 10.7461 35.0973 10.8243 34.8775 10.8243C34.6254 10.8243 34.3742 10.7215 34.1922 10.5192ZM19.6679 5.89096C20.0085 5.51253 20.5914 5.482 20.9699 5.82274L24.7398 9.21731C25.1181 9.55794 25.1487 10.1409 24.808 10.5192C24.626 10.7213 24.3748 10.8243 24.1227 10.8243C23.9029 10.8243 23.6824 10.7461 23.506 10.5874L19.7361 7.19288C19.3577 6.85225 19.3273 6.26928 19.6679 5.89096ZM41.3267 16.0305L45.1334 19.0902L43.8522 23.8032C43.7084 24.3323 43.9021 24.8827 44.3461 25.2056C44.7898 25.5278 45.3729 25.5418 45.8321 25.2417L49.9183 22.5667L54.0047 25.2418C54.225 25.3859 54.4738 25.4576 54.7221 25.4576C54.9913 25.4576 55.2599 25.3734 55.4905 25.2056C55.9344 24.8833 56.1283 24.3328 55.9843 23.8032L54.7031 19.0903L58.5095 16.0308C58.9373 15.6873 59.1041 15.128 58.9345 14.606C58.765 14.084 58.3013 13.7297 57.7535 13.7031L52.8754 13.4653L51.142 8.8995C50.9473 8.38659 50.4669 8.05506 49.9183 8.05506C49.3696 8.05506 48.8892 8.38647 48.6946 8.89938L46.9611 13.4653L42.0834 13.703C41.5351 13.7295 41.0714 14.084 40.9019 14.606C40.7323 15.1279 40.8991 15.6871 41.3267 16.0305ZM47.4004 15.2898C47.9204 15.2645 48.3758 14.9336 48.5604 14.447L49.9182 10.8707L51.2759 14.4469C51.4606 14.9336 51.916 15.2645 52.4358 15.2897L56.2565 15.476L53.2751 17.8723C52.8692 18.1984 52.6952 18.7338 52.8318 19.236L53.8354 22.9274L50.6347 20.8321C50.4169 20.6897 50.1674 20.6185 49.918 20.6185C49.6684 20.6185 49.4188 20.6898 49.2011 20.8322L46.0007 22.9274L47.0042 19.2362C47.1408 18.7342 46.967 18.1989 46.5611 17.8725L43.5795 15.476L47.4004 15.2898ZM0.490461 16.0305L4.29714 19.0902L3.01588 23.8032C2.87207 24.3323 3.06578 24.8827 3.50976 25.2056C3.95387 25.5278 4.53682 25.542 4.99579 25.2417L9.08203 22.5667L13.1684 25.2418C13.3887 25.3859 13.6375 25.4576 13.8858 25.4576C14.155 25.4576 14.4236 25.3734 14.6542 25.2056C15.0982 24.8833 15.292 24.3328 15.1481 23.8032L13.8668 19.0903L17.6732 16.0308C18.1008 15.6875 18.2677 15.1284 18.0982 14.6054C17.9284 14.0838 17.4647 13.7295 16.9172 13.703L12.0391 13.4652L10.3057 8.8995C10.111 8.38659 9.63064 8.05506 9.08203 8.05506C8.53329 8.05506 8.05289 8.38647 7.85826 8.89938L6.12483 13.4653L1.24707 13.703C0.698915 13.7295 0.235222 14.084 0.0658317 14.6054C-0.104135 15.1276 0.0626052 15.687 0.490461 16.0305ZM6.5641 15.2898C7.08414 15.2645 7.53953 14.9336 7.72413 14.447L9.08191 10.8707L10.4396 14.4469C10.6243 14.9336 11.0797 15.2645 11.5995 15.2897L15.4202 15.476L12.4388 17.8723C12.0329 18.1984 11.8589 18.7338 11.9955 19.236L12.9991 22.9274L9.79842 20.8321C9.58063 20.6897 9.33116 20.6185 9.08168 20.6185C8.83209 20.6185 8.5825 20.6898 8.36482 20.8322L5.16438 22.9274L6.16793 19.2362C6.30448 18.7342 6.13071 18.1989 5.72486 17.8725L2.74324 15.476L6.5641 15.2898ZM58.8543 49.7192C58.2057 47.6245 56.8772 45.7437 55.1133 44.4228C54.2689 43.7906 53.3493 43.298 52.3793 42.9493C53.7242 41.8938 54.5907 40.2552 54.5907 38.4168C54.5907 35.2403 52.0064 32.6561 48.8301 32.6561C45.6536 32.6561 43.0693 35.2403 43.0693 38.4168C43.0693 40.253 43.9338 41.89 45.276 42.9457C43.4771 43.5877 41.8834 44.7159 40.663 46.2361C40.0926 45.4381 39.4346 44.6969 38.695 44.0279C37.2046 42.68 35.4555 41.6902 33.5718 41.1051C35.5693 39.7809 36.8899 37.5134 36.8899 34.9424C36.8899 30.8677 33.5748 27.5527 29.5002 27.5527C25.4256 27.5527 22.1105 30.8677 22.1105 34.9424C22.1105 37.5134 23.4309 39.7809 25.4285 41.1051C23.5446 41.6901 21.7955 42.68 20.3051 44.0279C19.5655 44.6969 18.9075 45.4381 18.3372 46.2359C17.1169 44.7157 15.5232 43.5875 13.7243 42.9453C15.0664 41.8897 15.9309 40.2526 15.9309 38.4165C15.9309 35.2399 13.3466 32.6557 10.1703 32.6557C6.9938 32.6557 4.40949 35.2399 4.40949 38.4165C4.40949 40.2547 5.27604 41.8935 6.62079 42.949C5.65077 43.2977 4.73122 43.7902 3.88669 44.4225C2.12283 45.7432 0.794327 47.6242 0.145687 49.7188C-0.154031 50.6863 0.0120185 51.6682 0.613182 52.4838C1.21423 53.2992 2.10313 53.7482 3.11602 53.7482H15.8598V55.4119C15.8598 57.8053 17.8069 59.7524 20.2003 59.7524H38.7998C41.1931 59.7524 43.1403 57.8053 43.1404 55.4119V53.7486H55.8841C56.8971 53.7486 57.786 53.2996 58.3869 52.4843C58.988 51.6687 59.154 50.6866 58.8543 49.7192ZM48.8301 34.4998C50.9899 34.4998 52.747 36.257 52.747 38.4168C52.747 40.5768 50.9899 42.334 48.8301 42.334C46.6702 42.334 44.913 40.5768 44.913 38.4168C44.913 36.257 46.6702 34.4998 48.8301 34.4998ZM23.9542 34.9424C23.9542 31.8843 26.4421 29.3964 29.5002 29.3964C32.5582 29.3964 35.0462 31.8843 35.0462 34.9424C35.0462 37.9996 32.5598 40.4868 29.5032 40.4884C29.5021 40.4884 29.501 40.4884 29.5001 40.4884C29.4991 40.4884 29.4981 40.4884 29.4971 40.4884C26.4404 40.4867 23.9542 37.9995 23.9542 34.9424ZM10.1703 34.4993C12.3301 34.4993 14.0872 36.2565 14.0872 38.4164C14.0872 40.5763 12.3301 42.3335 10.1703 42.3335C8.01037 42.3335 6.2532 40.5763 6.2532 38.4164C6.2532 36.2565 8.01037 34.4993 10.1703 34.4993ZM15.9796 51.9043H3.11613C2.69185 51.9043 2.34915 51.7312 2.09737 51.3897C1.84547 51.0481 1.78152 50.6695 1.907 50.2642C3.03443 46.6234 6.3553 44.1773 10.1703 44.1773C13.056 44.1773 15.6848 45.5716 17.3016 47.932C16.6624 49.1737 16.2148 50.5122 15.9796 51.9043ZM41.2967 55.4118C41.2966 56.7885 40.1765 57.9086 38.7998 57.9086H20.2003C18.8236 57.9086 17.7036 56.7885 17.7036 55.4118V52.8763C18.371 46.8625 23.4324 42.3337 29.4971 42.3322C29.4981 42.3322 29.4991 42.3323 29.5002 42.3323C29.5012 42.3323 29.5022 42.3322 29.5032 42.3322C35.5677 42.3338 40.629 46.8625 41.2967 52.8763V55.4118ZM56.9029 51.3902C56.6511 51.7317 56.3085 51.9048 55.8841 51.9048H43.0208C42.7855 50.5125 42.3378 49.1741 41.6987 47.9322C43.3156 45.572 45.9443 44.1777 48.8299 44.1777C52.6449 44.1777 55.9658 46.6239 57.0932 50.2648C57.2187 50.6698 57.1546 51.0485 56.9029 51.3902Z" fill="#EA651B"/>
</svg>
