<svg width="65" height="63" viewBox="0 0 65 63" fill="none" xmlns="http://www.w3.org/2000/svg">
<path d="M38.945 62.5271C37.4841 62.5271 36.1786 61.4593 34.9106 60.4225C34.1359 59.7881 33.0738 58.9197 32.5612 58.9197C32.0492 58.9197 30.9872 59.7881 30.2124 60.4225C28.8234 61.558 27.248 62.849 25.5134 62.4515C23.7234 62.0447 22.8471 60.1625 22.0738 58.5028C21.6878 57.6726 21.1032 56.4176 20.6877 56.2167C20.247 56.0014 18.879 56.3333 17.9739 56.5508C16.2119 56.9749 14.216 57.453 12.8047 56.3276C11.3884 55.1964 11.4136 53.1364 11.4374 51.3197C11.4489 50.393 11.4662 48.9933 11.1681 48.6188C10.8736 48.2502 9.51052 47.9586 8.60831 47.7656C6.82406 47.384 4.80362 46.9512 4.01158 45.3095C3.23106 43.693 4.14191 41.8598 4.94403 40.2426C5.36093 39.4045 5.99025 38.1365 5.88008 37.6505C5.78072 37.2148 4.69634 36.3731 3.97918 35.8158C2.52686 34.6897 0.880127 33.4109 0.880127 31.5618C0.880127 29.7128 2.52686 28.4347 3.9799 27.3071C4.69706 26.7505 5.78144 25.9088 5.8808 25.4724C5.99097 24.9864 5.36165 23.7184 4.94547 22.8796C4.14263 21.2624 3.2325 19.4299 4.01374 17.8119C4.80578 16.171 6.82622 15.7382 8.60975 15.3566C9.51196 15.1636 10.875 14.872 11.1688 14.5041C11.4683 14.1289 11.451 12.7285 11.4395 11.8018C11.4165 9.9851 11.3913 7.92579 12.8069 6.79461C14.2174 5.66847 16.2148 6.14801 17.976 6.5714C18.8826 6.78885 20.2492 7.11791 20.6891 6.90621C21.1053 6.70532 21.6893 5.45101 22.0759 4.62009C22.8485 2.95968 23.7241 1.07821 25.5141 0.671389C27.2465 0.278248 28.8249 1.56424 30.2131 2.70046C30.9886 3.33482 32.0506 4.20318 32.5626 4.20318C33.0745 4.20318 34.1366 3.33482 34.9114 2.70118C36.301 1.56424 37.8758 0.275367 39.6111 0.671389C41.4004 1.07821 42.2767 2.9604 43.05 4.62081C43.4366 5.45101 44.0206 6.70604 44.4368 6.90693C44.8782 7.11935 46.2441 6.78957 47.1492 6.57212C48.9111 6.14873 50.9078 5.66919 52.319 6.79533C53.7354 7.92651 53.7102 9.98582 53.6864 11.8032C53.6749 12.7299 53.6576 14.1304 53.9557 14.5041C54.2502 14.872 55.6132 15.1644 56.5154 15.3573C58.2997 15.7389 60.3201 16.171 61.1122 17.8127C61.8927 19.4299 60.9818 21.2631 60.1797 22.8803C59.7628 23.7191 59.1335 24.9864 59.2437 25.4724C59.343 25.9088 60.4274 26.7505 61.1446 27.3071C62.5969 28.4347 64.2436 29.7128 64.2436 31.5618C64.2436 33.4109 62.5969 34.6889 61.1439 35.8165C60.4267 36.3731 59.3423 37.2141 59.243 37.6519C59.1328 38.1379 59.7621 39.4052 60.1783 40.2441C60.9811 41.8613 61.8913 43.6938 61.11 45.3117C60.318 46.9527 58.2975 47.3854 56.514 47.7663C55.6118 47.96 54.2488 48.2516 53.9543 48.6196C53.6554 48.9947 53.6727 50.3952 53.6842 51.3219C53.7073 53.1378 53.7325 55.1971 52.3169 56.3283C50.9063 57.4545 48.9089 56.9742 47.1477 56.5515C46.2412 56.3341 44.8746 56.0036 44.4346 56.2174C44.0184 56.4176 43.4345 57.6726 43.0478 58.5028C42.2752 60.164 41.3996 62.0454 39.6096 62.4522C39.385 62.5034 39.1632 62.5271 38.945 62.5271ZM20.242 53.271C20.8389 53.271 21.4113 53.3675 21.9391 53.6217C23.2806 54.2683 23.9948 55.8027 24.6854 57.2867C25.0274 58.0211 25.7388 59.549 26.1514 59.6427C26.5351 59.7103 27.788 58.6828 28.3885 58.1918C29.6832 57.1333 31.021 56.0389 32.5612 56.0389C34.1013 56.0389 35.4399 57.134 36.7338 58.1918C37.3343 58.6828 38.5497 59.6902 38.9724 59.6427C39.3835 59.5483 40.0957 58.0211 40.437 57.2867C41.1268 55.8027 41.841 54.2697 43.1832 53.6217C44.5484 52.9628 46.2102 53.3639 47.8195 53.7506C48.5936 53.9363 50.2072 54.3244 50.5182 54.0767C50.8343 53.8247 50.8134 52.1578 50.8034 51.3571C50.7825 49.7068 50.7609 48.001 51.7027 46.8216C52.6387 45.6494 54.3013 45.2937 55.9099 44.9495C56.6976 44.781 58.3357 44.4304 58.515 44.0595C58.682 43.7118 57.949 42.2342 57.5969 41.5243C56.8589 40.0374 56.0949 38.4994 56.4334 37.0132C56.761 35.5717 58.0909 34.5392 59.3762 33.5412C60.0717 33.0026 61.3635 32.0003 61.3635 31.5618C61.3635 31.1233 60.0717 30.121 59.3776 29.5817C58.0916 28.5837 56.7617 27.5519 56.4341 26.1097C56.0964 24.6235 56.8603 23.0855 57.5984 21.5986C57.9505 20.8887 58.6842 19.4119 58.5164 19.0634C58.3371 18.6918 56.6991 18.3419 55.912 18.1734C54.3035 17.8292 52.6402 17.4735 51.7041 16.302C50.763 15.1233 50.7846 13.4168 50.8055 11.7672C50.8156 10.9665 50.8365 9.29891 50.5204 9.04689C50.2108 8.7992 48.5964 9.1873 47.821 9.37307C46.2124 9.75973 44.5505 10.1601 43.1846 9.50124C41.8432 8.85392 41.1289 7.32024 40.4384 5.83695C40.0964 5.10251 39.3857 3.57459 38.9724 3.48098C38.5764 3.41258 37.335 4.4408 36.7345 4.93115C35.4406 5.99032 34.1028 7.08478 32.5626 7.08478C31.0224 7.08478 29.6846 5.9896 28.39 4.93115C27.7895 4.44008 26.5366 3.4169 26.1514 3.48026C25.7395 3.57387 25.0274 5.10179 24.6861 5.83624C23.9956 7.31952 23.282 8.8532 21.9406 9.50052C20.5754 10.1586 18.9135 9.75973 17.3035 9.37235C16.5295 9.18586 14.9144 8.79848 14.6048 9.04545C14.2887 9.29819 14.3096 10.9651 14.3197 11.7658C14.3406 13.4161 14.3622 15.1226 13.4203 16.3006C12.4843 17.4728 10.8217 17.8285 9.21315 18.1727C8.42542 18.3412 6.78733 18.6918 6.60804 19.0626C6.44099 19.4104 7.17399 20.8879 7.52609 21.5979C8.26413 23.0848 9.0281 24.6228 8.68968 26.109C8.36206 27.5505 7.03215 28.583 5.74688 29.581C5.05204 30.121 3.76029 31.1233 3.76029 31.5618C3.76029 32.0003 5.05204 33.0033 5.74616 33.5419C7.03215 34.5399 8.36206 35.571 8.68968 37.0132C9.02738 38.4994 8.26341 40.0367 7.52537 41.5243C7.17327 42.2342 6.43955 43.711 6.60732 44.0595C6.78661 44.4318 8.4247 44.7817 9.21243 44.9502C10.8203 45.2944 12.4836 45.6501 13.4196 46.8223C14.3607 48.001 14.3391 49.7068 14.3182 51.3571C14.3081 52.1578 14.2873 53.8254 14.6034 54.0775C14.913 54.3216 16.5273 53.9371 17.3028 53.7506C18.2885 53.513 19.2959 53.271 20.242 53.271ZM23.4995 42.6605L43.6606 22.4994C44.2229 21.937 44.2229 21.0255 43.6606 20.4631C43.0982 19.9008 42.1866 19.9008 41.6243 20.4631L21.4632 40.6242C20.9008 41.1866 20.9008 42.0982 21.4632 42.6605C21.7447 42.942 22.1127 43.0825 22.4813 43.0825C22.85 43.0825 23.2179 42.942 23.4995 42.6605ZM25.3615 29.4017C22.5828 29.4017 20.3212 27.1408 20.3212 24.3614C20.3212 21.5821 22.5828 19.3211 25.3615 19.3211C28.1401 19.3211 30.4018 21.5821 30.4018 24.3614C30.4018 27.1408 28.1401 29.4017 25.3615 29.4017ZM25.3615 22.2013C24.1705 22.2013 23.2014 23.1705 23.2014 24.3614C23.2014 25.5524 24.1705 26.5215 25.3615 26.5215C26.5524 26.5215 27.5216 25.5524 27.5216 24.3614C27.5216 23.1705 26.5524 22.2013 25.3615 22.2013ZM39.7623 43.8025C36.9836 43.8025 34.722 41.5408 34.722 38.7622C34.722 35.9836 36.9836 33.7219 39.7623 33.7219C42.5409 33.7219 44.8026 35.9836 44.8026 38.7622C44.8026 41.5408 42.5409 43.8025 39.7623 43.8025ZM39.7623 36.6021C38.5713 36.6021 37.6022 37.5713 37.6022 38.7622C37.6022 39.9532 38.5713 40.9223 39.7623 40.9223C40.9532 40.9223 41.9224 39.9532 41.9224 38.7622C41.9224 37.5713 40.9532 36.6021 39.7623 36.6021Z" fill="#EA651B"/>
</svg>
