<svg width="30" height="30" viewBox="0 0 30 30" fill="none" xmlns="http://www.w3.org/2000/svg">
<path fill-rule="evenodd" clip-rule="evenodd" d="M15 0C10.9262 0 10.4154 0.0172675 8.81552 0.0902669C7.21894 0.163087 6.12854 0.416679 5.17443 0.787511C4.18805 1.17079 3.35153 1.68369 2.51758 2.51758C1.68369 3.35153 1.17079 4.18805 0.787511 5.17443C0.416679 6.12854 0.163087 7.21894 0.0902669 8.81552C0.0172675 10.4154 0 10.9262 0 15C0 19.0738 0.0172675 19.5846 0.0902669 21.1845C0.163087 22.7811 0.416679 23.8715 0.787511 24.8256C1.17079 25.812 1.68369 26.6485 2.51758 27.4824C3.35153 28.3163 4.18805 28.8292 5.17443 29.2125C6.12854 29.5833 7.21894 29.8369 8.81552 29.9097C10.4154 29.9827 10.9262 30 15 30C19.0738 30 19.5846 29.9827 21.1845 29.9097C22.7811 29.8369 23.8715 29.5833 24.8256 29.2125C25.812 28.8292 26.6485 28.3163 27.4824 27.4824C28.3163 26.6485 28.8292 25.812 29.2125 24.8256C29.5833 23.8715 29.8369 22.7811 29.9097 21.1845C29.9827 19.5846 30 19.0738 30 15C30 10.9262 29.9827 10.4154 29.9097 8.81552C29.8369 7.21894 29.5833 6.12854 29.2125 5.17443C28.8292 4.18805 28.3163 3.35153 27.4824 2.51758C26.6485 1.68369 25.812 1.17079 24.8256 0.787511C23.8715 0.416679 22.7811 0.163087 21.1845 0.0902669C19.5846 0.0172675 19.0738 0 15 0ZM15 2.70264C19.0051 2.70264 19.4795 2.71794 21.0612 2.7901C22.5237 2.85679 23.318 3.10115 23.8465 3.30658C24.5467 3.57869 25.0464 3.90373 25.5712 4.42866C26.0961 4.95353 26.4212 5.45321 26.6933 6.15337C26.8987 6.68193 27.1431 7.47617 27.2098 8.93865C27.2819 10.5203 27.2972 10.9948 27.2972 15C27.2972 19.0051 27.2819 19.4795 27.2098 21.0612C27.1431 22.5237 26.8987 23.318 26.6933 23.8465C26.4212 24.5467 26.0961 25.0464 25.5712 25.5712C25.0464 26.0961 24.5467 26.4212 23.8465 26.6933C23.318 26.8987 22.5237 27.1431 21.0612 27.2098C19.4798 27.2819 19.0054 27.2972 15 27.2972C10.9945 27.2972 10.5202 27.2819 8.93865 27.2098C7.47617 27.1431 6.68193 26.8987 6.15337 26.6933C5.45321 26.4212 4.95353 26.0961 4.42866 25.5712C3.90379 25.0464 3.57869 24.5467 3.30658 23.8465C3.10115 23.318 2.85679 22.5237 2.7901 21.0612C2.71794 19.4795 2.70264 19.0051 2.70264 15C2.70264 10.9948 2.71794 10.5203 2.7901 8.93865C2.85679 7.47617 3.10115 6.68193 3.30658 6.15337C3.57869 5.45321 3.90373 4.95353 4.42866 4.42866C4.95353 3.90373 5.45321 3.57869 6.15337 3.30658C6.68193 3.10115 7.47617 2.85679 8.93865 2.7901C10.5203 2.71794 10.9948 2.70264 15 2.70264ZM7.29736 15.0001C7.29736 10.746 10.746 7.29736 15.0001 7.29736C19.2542 7.29736 22.7028 10.746 22.7028 15.0001C22.7028 19.2542 19.2542 22.7028 15.0001 22.7028C10.746 22.7028 7.29736 19.2542 7.29736 15.0001ZM15 20C12.2386 20 10 17.7614 10 15C10 12.2386 12.2386 10 15 10C17.7614 10 20 12.2386 20 15C20 17.7614 17.7614 20 15 20ZM23.0072 8.79288C24.0014 8.79288 24.8073 7.98703 24.8073 6.9929C24.8073 5.99878 24.0014 5.19287 23.0072 5.19287C22.0132 5.19287 21.2073 5.99878 21.2073 6.9929C21.2073 7.98703 22.0132 8.79288 23.0072 8.79288Z" fill="#474C50"/>
</svg>
