<svg width="70" height="70" viewBox="0 0 70 70" fill="none" xmlns="http://www.w3.org/2000/svg">
<path d="M52.3037 7.66124L35.0227 0.0967902C34.7289 -0.0314496 34.3949 -0.0314496 34.1011 0.0967902L16.8201 7.66124C16.4005 7.84439 16.1291 8.25866 16.1289 8.71653V26.8039C16.1352 30.8688 18.0885 34.6846 21.3823 37.0665L33.3258 45.6805C34.0634 46.2144 35.0605 46.2144 35.7981 45.6805L47.7415 37.0677C51.0354 34.6857 52.9887 30.8699 52.9949 26.8051V8.71653C52.9947 8.25866 52.7234 7.84439 52.3037 7.66124ZM50.6908 26.8051C50.6855 30.1298 49.0878 33.2508 46.3936 35.199L34.5619 43.7323L22.7302 35.199C20.0361 33.2508 18.4383 30.1298 18.433 26.8051V9.46998L34.5619 2.41013L50.6908 9.46998V26.8051Z" fill="#EA651B"/>
<path d="M34.1011 5.1267L21.4284 10.675C21.0088 10.8582 20.7374 11.2725 20.7372 11.7303V26.8051C20.7407 29.3899 21.9831 31.8164 24.0782 33.3304L33.888 40.4063C34.2904 40.6966 34.8335 40.6966 35.2359 40.4063L45.0457 33.3304C47.1408 31.8164 48.3832 29.3899 48.3867 26.8051V11.7303C48.3865 11.2725 48.1151 10.8582 47.6955 10.675L35.0228 5.1267C34.7289 4.99846 34.395 4.99846 34.1011 5.1267ZM46.0826 12.4826V26.8051C46.0791 28.6496 45.1924 30.3808 43.6978 31.4617L34.5619 38.0515L25.4261 31.4617C23.9315 30.3808 23.0448 28.6496 23.0413 26.8051V12.4826L34.5619 7.44004L46.0826 12.4826Z" fill="#EA651B"/>
<path d="M9.5449 38.2485L7.05299 32.4259C6.52306 31.2255 5.39298 30.399 4.08843 30.2577C2.78388 30.1165 1.50306 30.6819 0.728439 31.741C-0.0461841 32.8001 -0.196924 34.1921 0.333002 35.3925L4.84794 45.3244C5.45705 46.669 6.30441 47.8922 7.34907 48.935L14.4492 56.0363C14.0494 56.4601 13.8261 57.0204 13.8248 57.6031V66.8196C13.8248 68.0922 14.8564 69.1238 16.1289 69.1238H28.8016C30.0742 69.1238 31.1058 68.0922 31.1058 66.8196V57.6031C31.1058 56.3306 30.0742 55.299 28.8016 55.299V53.155C28.8369 50.4265 27.9468 47.7666 26.2763 45.609C25.297 44.3209 23.9622 43.3474 22.4365 42.8083C20.0101 41.7889 17.7786 40.3568 15.8409 38.5756C14.0424 37.0944 11.4873 36.9616 9.5449 38.2485ZM28.8016 66.8196H16.1289V57.6031H28.8016V66.8196ZM24.478 47.0479C25.8208 48.7975 26.5326 50.9498 26.4975 53.155V55.299H16.9711L8.97809 47.306C8.12917 46.4583 7.44032 45.4642 6.94469 44.3717L2.42976 34.4397C2.23708 34.0158 2.27294 33.5231 2.52496 33.1315C2.77698 32.74 3.21065 32.5033 3.67629 32.5031C4.22427 32.5027 4.7195 32.8297 4.93434 33.3338L7.51151 39.3441C8.19586 40.9476 9.18228 42.4046 10.417 43.6355L15.6796 48.8993C15.9689 49.1988 16.3972 49.3189 16.8 49.2135C17.2028 49.108 17.5174 48.7935 17.6228 48.3907C17.7283 47.9879 17.6081 47.5595 17.3087 47.2703L12.046 42.0065C11.5168 41.4786 11.041 40.8997 10.6255 40.2784C11.7319 39.427 13.2797 39.4528 14.3571 40.3406C16.5107 42.317 18.9998 43.8932 21.7072 44.9949C22.8104 45.3961 23.773 46.1094 24.478 47.0479Z" fill="#EA651B"/>
<path d="M25.3454 61.0593H24.1933C23.5571 61.0593 23.0413 61.5751 23.0413 62.2114C23.0413 62.8477 23.5571 63.3635 24.1933 63.3635H25.3454C25.9817 63.3635 26.4975 62.8477 26.4975 62.2114C26.4975 61.5751 25.9817 61.0593 25.3454 61.0593Z" fill="#EA651B"/>
<path d="M64.2759 45.3245L68.7908 35.3926C69.346 34.1881 69.2086 32.7779 68.4315 31.7032C67.6544 30.6284 66.3583 30.0561 65.0405 30.2059C63.7228 30.3557 62.5881 31.2043 62.072 32.426L59.5858 38.2266C57.6367 36.9461 55.0804 37.0863 53.2829 38.5722C51.3453 40.3534 49.1138 41.7855 46.6873 42.8049C45.1616 43.344 43.8269 44.3175 42.8475 45.6056C41.1763 47.7641 40.2861 50.4254 40.3222 53.1551V55.2991C39.0497 55.2991 38.0181 56.3307 38.0181 57.6032V66.8197C38.0181 68.0922 39.0497 69.1238 40.3222 69.1238H52.9949C54.2674 69.1238 55.299 68.0922 55.299 66.8197V57.6032C55.2978 57.0205 55.0745 56.4602 54.6746 56.0364L61.7748 48.9351C62.8194 47.8923 63.6668 46.669 64.2759 45.3245ZM52.9949 66.8197H40.3222V57.6032H52.9949V66.8197ZM52.1527 55.2991H42.6263V53.1551C42.5915 50.9502 43.3033 48.7984 44.6459 47.0491C45.3493 46.1112 46.3098 45.3976 47.4108 44.995C50.1188 43.8936 52.6083 42.3174 54.7622 40.3407C55.8384 39.4462 57.3905 39.416 58.5006 40.2681C58.0839 40.894 57.6057 41.4768 57.0732 42.0077L51.8106 47.2715C51.374 47.7235 51.3802 48.4421 51.8246 48.8865C52.269 49.3309 52.9875 49.3371 53.4396 48.9005L58.7022 43.6367C59.9369 42.4058 60.9234 40.9488 61.6077 39.3453L64.1849 33.3338C64.4003 32.8304 64.8953 32.504 65.4429 32.5043C65.9086 32.5045 66.3422 32.7412 66.5943 33.1327C66.8463 33.5243 66.8822 34.017 66.6895 34.441L62.1745 44.3729C61.6789 45.4654 60.9901 46.4595 60.1411 47.3072L52.1527 55.2991Z" fill="#EA651B"/>
<path d="M44.9303 61.0593H43.7783C43.142 61.0593 42.6262 61.5751 42.6262 62.2114C42.6262 62.8477 43.142 63.3635 43.7783 63.3635H44.9303C45.5666 63.3635 46.0824 62.8477 46.0824 62.2114C46.0824 61.5751 45.5666 61.0593 44.9303 61.0593Z" fill="#EA651B"/>
<path d="M28.3407 24.4237C27.8317 24.042 27.1096 24.1451 26.7278 24.6541C26.346 25.1631 26.4492 25.8853 26.9582 26.267L31.5665 29.7232C31.7659 29.8728 32.0084 29.9536 32.2577 29.9536C32.3229 29.9534 32.388 29.948 32.4524 29.9375C32.7644 29.884 33.0406 29.7044 33.2162 29.441L42.4327 15.6162C42.6612 15.2738 42.6895 14.8354 42.5072 14.4664C42.3249 14.0973 41.9595 13.8536 41.5487 13.827C41.1379 13.8004 40.7441 13.995 40.5157 14.3374L31.9743 27.1495L28.3407 24.4237Z" fill="#EA651B"/>
</svg>
