<svg width="68" height="67" viewBox="0 0 68 67" fill="none" xmlns="http://www.w3.org/2000/svg">
<path d="M8.11169 1.72314H49.1671C51.4712 1.72314 53.3564 3.60834 53.3564 5.91247V25.9165" stroke="#EA651B" stroke-width="2.09466" stroke-miterlimit="10" stroke-linecap="round" stroke-linejoin="round"/>
<path d="M14.6051 8.42603V14.1863V58.5932C14.6051 62.2588 17.6424 65.2961 21.308 65.2961M21.308 65.2961C23.1932 65.2961 24.8689 64.5629 26.1257 63.3061C27.3825 62.0493 28.1157 60.3736 28.1157 58.5932V55.7654H66.029V58.5932C66.029 60.4783 65.2959 62.1541 64.0391 63.3061C62.7823 64.5629 61.1066 65.2961 59.2214 65.2961H21.308Z" stroke="#EA651B" stroke-width="2.09466" stroke-miterlimit="10" stroke-linecap="round" stroke-linejoin="round"/>
<path d="M14.605 14.1864H1.09448V8.5308C1.09448 4.76041 4.13174 1.82788 7.7974 1.82788C11.5678 1.82788 14.5003 4.86514 14.5003 8.5308V14.1864H14.605Z" stroke="#EA651B" stroke-width="2.09466" stroke-miterlimit="10" stroke-linecap="round" stroke-linejoin="round"/>
<path d="M60.6877 31.8862C60.6877 28.1158 57.3362 25.1833 53.4611 25.9164C51.0523 26.3354 49.1671 28.3253 48.7481 30.7342C48.4339 32.6194 48.9576 34.3998 50.1097 35.6566C51.0523 36.7039 51.4712 38.0655 51.4712 39.5317V46.1299H57.9646V40.2649C57.9646 38.4844 58.593 36.8087 59.6404 35.4471C60.2688 34.3998 60.6877 33.143 60.6877 31.8862Z" stroke="#EA651B" stroke-width="2.09466" stroke-miterlimit="10" stroke-linecap="round" stroke-linejoin="round"/>
<path d="M45.8157 51.7855H63.5156V55.8701H45.8157V51.7855Z" stroke="#EA651B" stroke-width="2.09466" stroke-miterlimit="10" stroke-linecap="round" stroke-linejoin="round"/>
<path d="M48.9576 46.1299H60.3735C63.5155 46.1299 66.0291 48.6435 66.0291 51.7855H43.302C43.302 48.6435 45.8156 46.1299 48.9576 46.1299Z" stroke="#EA651B" stroke-width="2.09466" stroke-miterlimit="10" stroke-linecap="round" stroke-linejoin="round"/>
<path d="M20.0513 7.37866H31.0482" stroke="#EA651B" stroke-width="2.09466" stroke-miterlimit="10" stroke-linecap="round" stroke-linejoin="round"/>
<path d="M20.0514 12.8247H31.0484" stroke="#EA651B" stroke-width="2.09466" stroke-miterlimit="10" stroke-linecap="round" stroke-linejoin="round"/>
<path d="M20.0514 18.1661H48.2246" stroke="#EA651B" stroke-width="2.09466" stroke-miterlimit="10" stroke-linecap="round" stroke-linejoin="round"/>
<path d="M20.0514 23.5074H48.2246" stroke="#EA651B" stroke-width="2.09466" stroke-miterlimit="10" stroke-linecap="round" stroke-linejoin="round"/>
<path d="M20.0514 28.8489H43.3021" stroke="#EA651B" stroke-width="2.09466" stroke-miterlimit="10" stroke-linecap="round" stroke-linejoin="round"/>
<path d="M20.0514 34.1903H42.8832" stroke="#EA651B" stroke-width="2.09466" stroke-miterlimit="10" stroke-linecap="round" stroke-linejoin="round"/>
<path d="M20.0514 39.5317H23.4028" stroke="#EA651B" stroke-width="2.09466" stroke-miterlimit="10" stroke-linecap="round" stroke-linejoin="round"/>
<path d="M20.0514 44.9778H22.3555" stroke="#EA651B" stroke-width="2.09466" stroke-miterlimit="10" stroke-linecap="round" stroke-linejoin="round"/>
<path d="M20.0514 50.3192H23.4028" stroke="#EA651B" stroke-width="2.09466" stroke-miterlimit="10" stroke-linecap="round" stroke-linejoin="round"/>
<path d="M40.16 44.9778C40.16 48.6435 37.2275 51.576 33.5618 51.576C29.8961 51.576 26.9636 48.6435 26.9636 44.9778C26.9636 41.3122 29.8961 38.3796 33.5618 38.3796C37.2275 38.3796 40.16 41.3122 40.16 44.9778Z" stroke="#EA651B" stroke-width="2.09466" stroke-miterlimit="10" stroke-linecap="round" stroke-linejoin="round"/>
<path d="M30.4198 45.1873L32.4097 47.0725L36.7038 42.7784" stroke="#EA651B" stroke-width="2.09466" stroke-miterlimit="10" stroke-linecap="round" stroke-linejoin="round"/>
<path d="M8.11169 1.72314H49.1671C51.4712 1.72314 53.3564 3.60834 53.3564 5.91247V25.9165" stroke="#EA651B" stroke-width="2.09466" stroke-miterlimit="10" stroke-linecap="round" stroke-linejoin="round"/>
<path d="M14.6051 8.42603V14.1863V58.5932C14.6051 62.2588 17.6424 65.2961 21.308 65.2961M21.308 65.2961C23.1932 65.2961 24.8689 64.5629 26.1257 63.3061C27.3825 62.0493 28.1157 60.3736 28.1157 58.5932V55.7654H66.029V58.5932C66.029 60.4783 65.2959 62.1541 64.0391 63.3061C62.7823 64.5629 61.1066 65.2961 59.2214 65.2961H21.308Z" stroke="#EA651B" stroke-width="2.09466" stroke-miterlimit="10" stroke-linecap="round" stroke-linejoin="round"/>
<path d="M14.605 14.1864H1.09448V8.5308C1.09448 4.76041 4.13174 1.82788 7.7974 1.82788C11.5678 1.82788 14.5003 4.86514 14.5003 8.5308V14.1864H14.605Z" stroke="#EA651B" stroke-width="2.09466" stroke-miterlimit="10" stroke-linecap="round" stroke-linejoin="round"/>
<path d="M60.6877 31.8862C60.6877 28.1158 57.3362 25.1833 53.4611 25.9164C51.0523 26.3354 49.1671 28.3253 48.7481 30.7342C48.4339 32.6194 48.9576 34.3998 50.1097 35.6566C51.0523 36.7039 51.4712 38.0655 51.4712 39.5317V46.1299H57.9646V40.2649C57.9646 38.4844 58.593 36.8087 59.6404 35.4471C60.2688 34.3998 60.6877 33.143 60.6877 31.8862Z" stroke="#EA651B" stroke-width="2.09466" stroke-miterlimit="10" stroke-linecap="round" stroke-linejoin="round"/>
<path d="M45.8157 51.7855H63.5156V55.8701H45.8157V51.7855Z" stroke="#EA651B" stroke-width="2.09466" stroke-miterlimit="10" stroke-linecap="round" stroke-linejoin="round"/>
<path d="M48.9576 46.1299H60.3735C63.5155 46.1299 66.0291 48.6435 66.0291 51.7855H43.302C43.302 48.6435 45.8156 46.1299 48.9576 46.1299Z" stroke="#EA651B" stroke-width="2.09466" stroke-miterlimit="10" stroke-linecap="round" stroke-linejoin="round"/>
<path d="M20.0513 7.37866H31.0482" stroke="#EA651B" stroke-width="2.09466" stroke-miterlimit="10" stroke-linecap="round" stroke-linejoin="round"/>
<path d="M20.0514 12.8247H31.0484" stroke="#EA651B" stroke-width="2.09466" stroke-miterlimit="10" stroke-linecap="round" stroke-linejoin="round"/>
<path d="M20.0514 18.1661H48.2246" stroke="#EA651B" stroke-width="2.09466" stroke-miterlimit="10" stroke-linecap="round" stroke-linejoin="round"/>
<path d="M20.0514 23.5074H48.2246" stroke="#EA651B" stroke-width="2.09466" stroke-miterlimit="10" stroke-linecap="round" stroke-linejoin="round"/>
<path d="M20.0514 28.8489H43.3021" stroke="#EA651B" stroke-width="2.09466" stroke-miterlimit="10" stroke-linecap="round" stroke-linejoin="round"/>
<path d="M20.0514 34.1903H42.8832" stroke="#EA651B" stroke-width="2.09466" stroke-miterlimit="10" stroke-linecap="round" stroke-linejoin="round"/>
<path d="M20.0514 39.5317H23.4028" stroke="#EA651B" stroke-width="2.09466" stroke-miterlimit="10" stroke-linecap="round" stroke-linejoin="round"/>
<path d="M20.0514 44.9778H22.3555" stroke="#EA651B" stroke-width="2.09466" stroke-miterlimit="10" stroke-linecap="round" stroke-linejoin="round"/>
<path d="M20.0514 50.3192H23.4028" stroke="#EA651B" stroke-width="2.09466" stroke-miterlimit="10" stroke-linecap="round" stroke-linejoin="round"/>
<path d="M40.16 44.9778C40.16 48.6435 37.2275 51.576 33.5618 51.576C29.8961 51.576 26.9636 48.6435 26.9636 44.9778C26.9636 41.3122 29.8961 38.3796 33.5618 38.3796C37.2275 38.3796 40.16 41.3122 40.16 44.9778Z" stroke="#EA651B" stroke-width="2.09466" stroke-miterlimit="10" stroke-linecap="round" stroke-linejoin="round"/>
<path d="M30.4198 45.1873L32.4097 47.0725L36.7038 42.7784" stroke="#EA651B" stroke-width="2.09466" stroke-miterlimit="10" stroke-linecap="round" stroke-linejoin="round"/>
</svg>
