<svg width="162" height="64" viewBox="0 0 162 64" fill="none" xmlns="http://www.w3.org/2000/svg">
<path d="M14 15.172C17.36 15.172 19.9173 16.1427 21.672 18.084C23.464 19.988 24.36 22.844 24.36 26.652V38.692C24.36 42.5 23.464 45.3747 21.672 47.316C19.9173 49.22 17.36 50.172 14 50.172C10.64 50.172 8.064 49.22 6.272 47.316C4.51733 45.3747 3.64 42.5 3.64 38.692V26.652C3.64 22.844 4.51733 19.988 6.272 18.084C8.064 16.1427 10.64 15.172 14 15.172ZM14 19.204C10.2667 19.204 8.4 21.5373 8.4 26.204V39.14C8.4 43.8067 10.2667 46.14 14 46.14C17.7333 46.14 19.6 43.8067 19.6 39.14V26.204C19.6 21.5373 17.7333 19.204 14 19.204ZM40.88 15.172C43.8667 15.172 46.2 15.9373 47.88 17.468C49.5973 18.9987 50.456 21.1827 50.456 24.02V24.3C50.456 25.9427 50.1387 27.38 49.504 28.612C48.9067 29.844 48.0107 30.8147 46.816 31.524C48.4213 32.2707 49.6533 33.316 50.512 34.66C51.3707 36.004 51.8 37.628 51.8 39.532V40.372C51.8 43.4707 50.848 45.8787 48.944 47.596C47.0773 49.3133 44.3893 50.172 40.88 50.172C37.3707 50.172 34.664 49.3133 32.76 47.596C30.8933 45.8787 29.96 43.4707 29.96 40.372V39.532C29.96 35.6493 31.6213 32.98 34.944 31.524C33.7493 30.8147 32.8347 29.844 32.2 28.612C31.6027 27.38 31.304 25.9427 31.304 24.3V24.02C31.304 21.22 32.144 19.0547 33.824 17.524C35.5413 15.956 37.8933 15.172 40.88 15.172ZM40.88 18.868C37.5947 18.868 35.952 20.492 35.952 23.74V24.804C35.952 26.5587 36.3253 27.828 37.072 28.612C37.8187 29.3587 39.088 29.732 40.88 29.732C42.672 29.732 43.9413 29.3587 44.688 28.612C45.4347 27.828 45.808 26.5587 45.808 24.804V23.74C45.808 22.06 45.3973 20.828 44.576 20.044C43.792 19.26 42.56 18.868 40.88 18.868ZM40.88 33.428C38.9387 33.428 37.4267 33.9507 36.344 34.996C35.2613 36.0413 34.72 37.516 34.72 39.42V40.82C34.72 42.4627 35.2427 43.7693 36.288 44.74C37.3707 45.7107 38.9013 46.196 40.88 46.196C42.8587 46.196 44.3707 45.7107 45.416 44.74C46.4987 43.7693 47.04 42.4627 47.04 40.82V39.42C47.04 37.516 46.4987 36.0413 45.416 34.996C44.3333 33.9507 42.8213 33.428 40.88 33.428Z" fill="#EA651B"/>
<path fill-rule="evenodd" clip-rule="evenodd" d="M60 49.5V32V14.5H70.2575H79.4882H80.515H83.913H88.2875V27.9338V41.3162H93.6677H98.9976V45.4338V49.5H89.2429H79.4882V47.5H79.5V25.5H79.4882V22.6324H74.632H68.7993V25.7206V28.7574H74.1795H76.5V36.5294H74.1795H68.7993V43.0147V49.5H64.4248H60ZM102.636 43.1691V49.5H107.061H111.435V43.1691V36.8382C113.212 33.1667 115.022 29.4436 116.866 25.6691C117.354 24.6704 117.839 23.6753 118.322 22.6838H120.92H124.792V36.1176V49.5H129.217H133.591V36.1176V22.6838H137.463H137.764H141.284H141.636H145.508V36.1176V49.5H149.932H154.307V36.1176V22.6838H158.179H162V18.6176V14.5H149.882H141.284H137.764H129.166H122.296H117.67H117.048H113.044C112.072 16.5931 111.083 18.7034 110.078 20.8309C109.072 22.924 108.083 25.0172 107.111 27.1103C106.139 25.0172 105.133 22.924 104.094 20.8309C103.088 18.7034 102.1 16.5931 101.127 14.5H96.4512H91.775C93.5517 18.1716 95.3618 21.8946 97.2055 25.6691C99.0491 29.4436 100.859 33.1667 102.636 36.8382V43.1691Z" fill="#262829"/>
</svg>
