<svg width="40" height="40" viewBox="0 0 40 40" fill="none" xmlns="http://www.w3.org/2000/svg">
<g clip-path="url(#clip0_33_1748)">
<path d="M39.6552 10.7501L20.322 0.0834991C20.1218 -0.027833 19.8783 -0.027833 19.678 0.0834991L0.344907 10.7501C0.132159 10.8674 0.000160848 11.0911 0.00024418 11.334V28.6672C0.000410845 28.9099 0.132409 29.1333 0.344907 29.2505L19.678 39.9171C19.8785 40.0277 20.1216 40.0277 20.322 39.9171L39.6552 29.2505C39.8677 29.1333 39.9997 28.9099 39.9998 28.6672V11.334C40 11.0911 39.8679 10.8674 39.6552 10.7501ZM31.2547 7.64142L13.3028 17.5433L8.71415 15.0133L26.6666 5.10811L31.2547 7.64142ZM12.6668 18.714V26.1872L8.00016 23.5953V16.1427L12.6668 18.714ZM20 1.42882L25.288 4.34679L7.3335 14.2527L2.04689 11.334L20 1.42882ZM19.3334 38.2044L1.33356 28.2739V12.4634L6.66684 15.4073V23.9872C6.66684 24.2292 6.79801 24.4523 7.0095 24.5699L13.0094 27.9032C13.3312 28.0821 13.7371 27.9664 13.9161 27.6445C13.9712 27.5455 14.0001 27.4339 14.0001 27.3205V19.45L19.3334 22.3939V38.2044ZM20 21.2393L14.6828 18.306L32.634 8.40075L37.9526 11.334L20 21.2393ZM38.6665 28.2739L20.6667 38.2044V22.3939L38.6665 12.4607V28.2739Z" fill="white"/>
</g>
<defs>
<clipPath id="clip0_33_1748">
<rect width="40" height="40" fill="white"/>
</clipPath>
</defs>
</svg>
