<svg width="69" height="70" viewBox="0 0 69 70" fill="none" xmlns="http://www.w3.org/2000/svg">
<path d="M55.609 7.27921C55.1662 6.93068 54.5246 7.00713 54.1762 7.45008C53.8278 7.89302 53.9043 8.53445 54.3471 8.88285C60.3713 13.6234 64.4053 20.2 65.917 27.5174C64.2355 25.8284 61.9095 24.7817 59.3435 24.7817C56.3286 24.7817 53.6454 26.2271 51.9488 28.4605C51.7346 25.326 51.2212 21.5777 49.9886 17.7452C47.8551 11.1108 44.1143 5.94221 38.8428 2.32778C42.9713 2.88295 46.9634 4.23668 50.5714 6.32394C51.0591 6.60609 51.6833 6.43944 51.9656 5.9516C52.2477 5.4639 52.0811 4.83975 51.5932 4.55747C46.4391 1.57588 40.5497 0 34.5619 0C25.4638 0 16.9103 3.54302 10.4767 9.97647C4.04326 16.4101 0.500244 24.9636 0.500244 34.0616C0.500244 34.6251 0.957066 35.0819 1.52054 35.0819C2.08402 35.0819 2.54084 34.6251 2.54084 34.0616C2.54084 30.0699 5.78892 26.8224 9.78155 26.8224C13.7734 26.8224 17.0209 30.0699 17.0209 34.0616C17.0209 34.6251 17.4777 35.0819 18.0412 35.0819C18.6047 35.0819 19.0615 34.6251 19.0615 34.0616C19.0615 30.0699 22.3097 26.8224 26.3022 26.8224C28.4511 26.8224 30.3833 27.7646 31.7103 29.2563V61.0701C31.7103 62.2588 30.7439 63.2259 29.5545 63.2259C28.3666 63.2259 27.4002 62.2588 27.4002 61.0701V60.1676C27.4002 56.4803 21.6971 56.4102 21.6971 60.1193V61.2656C21.6971 65.5986 25.2223 69.1238 29.5553 69.1238C33.8883 69.1238 37.4134 65.5986 37.4134 61.2656V29.2567C38.7407 27.7646 40.6735 26.8224 42.823 26.8224C46.8147 26.8224 50.0622 30.0699 50.0622 34.0616C50.0622 34.6251 50.5191 35.0819 51.0825 35.0819C51.646 35.0819 52.1028 34.6251 52.1028 34.0616C52.1028 30.0699 55.351 26.8224 59.3437 26.8224C63.3354 26.8224 66.5829 30.0699 66.5829 34.0616C66.5829 34.6251 67.0397 35.0819 67.6032 35.0819C68.1667 35.0819 68.6235 34.6251 68.6235 34.0616C68.6235 23.5496 63.8798 13.7879 55.609 7.27921ZM33.7509 34.679C33.9373 34.9234 34.2307 35.0818 34.5619 35.0818C34.893 35.0818 35.1864 34.9233 35.3728 34.679V55.8028H33.7509V34.679ZM26.3022 24.7818C23.4861 24.7818 20.959 26.0428 19.2554 28.0292C19.4625 25.4134 19.8913 22.4053 20.781 19.3398C20.9382 18.7986 20.6268 18.2326 20.0856 18.0756C19.5444 17.9185 18.9784 18.2299 18.8214 18.771C17.8157 22.2364 17.3719 25.6076 17.176 28.4617C15.4798 26.2276 12.7966 24.7818 9.78155 24.7818C7.21897 24.7818 4.89569 25.8254 3.21464 27.5101C5.96142 14.3511 16.8106 4.13085 30.2867 2.32505C26.0311 5.24433 22.7629 9.18472 20.5426 14.0842C20.3101 14.5975 20.5375 15.202 21.0508 15.4347C21.1874 15.4966 21.3305 15.5258 21.4713 15.5258C21.8596 15.5258 22.2305 15.303 22.4013 14.9264C24.8138 9.60236 28.5575 5.49859 33.5416 2.70556V28.2582C31.8645 26.0592 29.0396 24.7818 26.3022 24.7818ZM35.3728 61.2658C35.3728 64.4736 32.763 67.0834 29.5552 67.0834C26.3474 67.0834 23.7377 64.4736 23.7377 61.2658V60.1195C23.7377 59.0517 25.3596 59.0767 25.3596 60.1678V61.0703C25.3596 63.3842 27.2414 65.2667 29.556 65.2667C31.8691 65.2667 33.7509 63.3842 33.7509 61.0703V57.8435H35.3728V61.2658ZM42.8229 24.7818C40.0868 24.7818 37.2589 26.0592 35.582 28.2579V2.70406C46.6592 8.90298 49.2619 20.1864 49.8735 28.0352C48.1703 26.0452 45.6415 24.7818 42.8229 24.7818Z" fill="#EA651B"/>
<path d="M13.1695 53.7435C13.733 53.7435 14.1898 53.2867 14.1898 52.7232V51.8848C15.6897 51.5756 17.0209 50.291 16.9408 48.6824C16.862 47.1025 15.534 46.2246 14.1898 45.7158V43.679C14.66 43.8613 14.976 44.1093 14.9927 44.1228C15.424 44.4807 16.064 44.4237 16.4252 43.9941C16.7878 43.5627 16.732 42.9191 16.3006 42.5566C16.2484 42.5126 15.4109 41.8219 14.1897 41.552V40.6925C14.1897 40.1291 13.7329 39.6722 13.1694 39.6722C12.6059 39.6722 12.1491 40.1291 12.1491 40.6925V41.5897C10.9121 41.9236 9.9447 42.9504 9.88443 44.2579C9.81247 45.8158 10.8768 46.5735 12.1491 47.1011V49.6865C11.7702 49.528 11.4327 49.2972 11.1704 49.0077C10.7921 48.5902 10.1469 48.5584 9.72921 48.9368C9.3117 49.3153 9.27987 49.9604 9.65833 50.378C10.2988 51.0849 11.1829 51.5884 12.1491 51.8226V52.7235C12.1492 53.2867 12.606 53.7435 13.1695 53.7435ZM14.8933 48.9319C14.8295 49.2898 14.4994 49.5967 14.1898 49.7479C14.1898 49.1411 14.1898 48.5345 14.1898 47.9278C14.5343 48.115 14.975 48.4744 14.8933 48.9319ZM12.1436 44.8809C11.7986 44.6084 11.8691 44.1168 12.1492 43.8404C12.1492 43.9869 12.0794 44.8528 12.1436 44.8809Z" fill="#EA651B"/>
<path d="M21.2276 51.9319C20.7903 51.5767 20.1475 51.6432 19.7924 52.0804C18.1636 54.0855 15.7496 55.2354 13.1695 55.2354C8.46724 55.2354 4.64167 51.4099 4.64167 46.7077C4.64167 42.0055 8.46724 38.1799 13.1695 38.1799C17.8717 38.1799 21.6972 42.0055 21.6972 46.7077C21.6972 47.1541 21.6626 47.6024 21.594 48.0399C21.5068 48.5966 21.8874 49.1186 22.4441 49.2058C23.0006 49.2927 23.5228 48.9123 23.61 48.3556C23.6948 47.8139 23.7378 47.2594 23.7378 46.7077C23.7378 40.8803 18.9969 36.1393 13.1695 36.1393C7.34206 36.1393 2.60107 40.8803 2.60107 46.7077C2.60107 52.5351 7.34206 57.276 13.1695 57.276C16.3669 57.276 19.3582 55.8513 21.3762 53.3671C21.7315 52.9297 21.6649 52.2872 21.2276 51.9319Z" fill="#EA651B"/>
<path d="M58.3133 37.4232H49.9376C47.695 37.4232 45.8706 39.2476 45.8706 41.4903V51.9253C45.8706 54.1679 47.6952 55.9924 49.9376 55.9924H58.3133C60.556 55.9924 62.3804 54.1678 62.3804 51.9253V41.4903C62.3804 39.2476 60.556 37.4232 58.3133 37.4232ZM60.3398 51.9252C60.3398 53.0426 59.4306 53.9516 58.3133 53.9516H49.9376C48.8202 53.9516 47.9112 53.0425 47.9112 51.9252V41.4901C47.9112 40.3727 48.8204 39.4637 49.9376 39.4637H58.3133C59.4308 39.4637 60.3398 40.3727 60.3398 41.4901V51.9252Z" fill="#EA651B"/>
<path d="M51.1953 44.6756H55.1368C55.7003 44.6756 56.1571 44.2188 56.1571 43.6553C56.1571 43.0918 55.7003 42.635 55.1368 42.635H51.1953C50.6319 42.635 50.175 43.0918 50.175 43.6553C50.175 44.2188 50.6319 44.6756 51.1953 44.6756Z" fill="#EA651B"/>
<path d="M56.9735 46.7839H51.1953C50.6319 46.7839 50.175 47.2408 50.175 47.8042C50.175 48.3677 50.6319 48.8245 51.1953 48.8245H56.9735C57.537 48.8245 57.9938 48.3677 57.9938 47.8042C57.9938 47.2408 57.537 46.7839 56.9735 46.7839Z" fill="#EA651B"/>
</svg>
