<svg width="68" height="67" viewBox="0 0 68 67" fill="none" xmlns="http://www.w3.org/2000/svg">
<path d="M66.1747 33.4131C67.7726 30.2517 67.111 26.4992 64.5281 24.075L60.7794 20.5564C59.9147 19.7451 59.3861 18.8293 59.1155 17.6744L57.9427 12.6689C57.135 9.22001 54.2159 6.77057 50.6789 6.57386L45.5458 6.28832C44.3617 6.22244 43.368 5.86075 42.4186 5.15021L38.3028 2.06934C35.4674 -0.0532507 31.6565 -0.0535207 28.8207 2.06934L24.7049 5.15007C23.7555 5.86075 22.7617 6.22244 21.5777 6.28832L16.4446 6.57386C12.9078 6.77057 9.98863 9.22001 9.18075 12.6689L8.00794 17.6746C7.73752 18.8293 7.20883 19.7451 6.34424 20.5566L2.59536 24.075C0.0125296 26.4991 -0.649142 30.2517 0.948806 33.4131L3.26823 38.0013C3.80327 39.0598 3.98688 40.1011 3.84607 41.2786L3.23583 46.3835C2.81555 49.9006 4.72078 53.2006 7.97689 54.5952L12.703 56.6192C13.793 57.0861 14.6031 57.7657 15.2523 58.7582L18.0663 63.061C20.0048 66.0255 23.5855 67.3288 26.9765 66.304L31.8978 64.8167C33.0331 64.4736 34.0904 64.4737 35.2254 64.8167L40.1467 66.304C40.9183 66.5372 41.6993 66.6499 42.4689 66.6497C45.0817 66.6496 47.5594 65.351 49.057 63.061L51.871 58.7582C52.5202 57.7657 53.3302 57.086 54.4203 56.6191L59.1463 54.5951C62.4024 53.2004 64.3078 49.9005 63.8874 46.3834L63.2772 41.2783C63.1363 40.1009 63.32 39.0595 63.855 38.0012L66.1747 33.4131ZM61.9275 37.027C61.2015 38.463 60.9415 39.9376 61.1326 41.535L61.7428 46.6399C62.0532 49.2368 60.7003 51.5799 58.2962 52.6096L53.5701 54.6337C52.0911 55.2671 50.9441 56.2296 50.0634 57.576L47.2493 61.8789C45.818 64.0676 43.2751 64.9929 40.7718 64.2364L35.8505 62.7491C35.0804 62.5164 34.3213 62.4 33.5617 62.4C32.8025 62.4 32.0429 62.5164 31.273 62.7491L26.3517 64.2364C23.8484 64.9928 21.3056 64.0676 19.8742 61.8789L17.0602 57.576C16.1794 56.2295 15.0322 55.267 13.5534 54.6337L8.8273 52.6096C6.42309 51.5801 5.07031 49.2368 5.3807 46.6399L5.99093 41.535C6.18196 39.9374 5.92194 38.4629 5.19601 37.0268L2.87658 32.4386C1.69688 30.1044 2.16657 27.4399 4.07355 25.65L7.82244 22.1316C8.99552 21.0306 9.74414 19.7338 10.1111 18.1672L11.2839 13.1615C11.8804 10.6152 13.9531 8.87587 16.5644 8.73074L21.6976 8.4452C23.304 8.35582 24.7111 7.84361 25.9992 6.87952L30.115 3.79865C32.2087 2.23148 34.9147 2.23135 37.0084 3.79865L41.1242 6.87952C42.4123 7.84361 43.8195 8.35582 45.4258 8.4452L50.5589 8.73074C53.1704 8.87601 55.243 10.6152 55.8395 13.1617L57.0123 18.1672C57.3792 19.734 58.128 21.0307 59.301 22.1316L63.0498 25.65C64.9568 27.4398 65.4265 30.1044 64.2468 32.4386L61.9275 37.027ZM33.5619 11.4819C21.3869 11.4819 11.482 21.3869 11.482 33.5619C11.482 45.7368 21.3869 55.6418 33.5619 55.6418C45.7369 55.6418 55.6418 45.7368 55.6418 33.5619C55.6418 21.3869 45.7369 11.4819 33.5619 11.4819ZM33.5619 53.4817C22.5781 53.4817 13.6421 44.5457 13.6421 33.5619C13.6421 22.578 22.5781 13.642 33.5619 13.642C44.5457 13.642 53.4817 22.578 53.4817 33.5619C53.4817 44.5457 44.5457 53.4817 33.5619 53.4817ZM42.7549 23.5537C42.7497 23.5537 42.7441 23.5537 42.7389 23.5537C41.6596 23.5579 40.6475 23.9821 39.8891 24.7483L30.9326 33.7939L27.2337 30.0949C26.4698 29.331 25.454 28.9103 24.3734 28.9103C23.2927 28.9103 22.277 29.331 21.513 30.095C19.936 31.6722 19.936 34.2384 21.513 35.8154L28.0826 42.385C28.8712 43.1734 29.907 43.5678 30.9429 43.5678C31.9788 43.5678 33.0147 43.1736 33.8033 42.385C36.294 39.8941 38.8072 37.3449 41.2377 34.8798C42.6981 33.3984 44.1587 31.9171 45.6228 30.4393C47.1891 28.8586 47.1809 26.2972 45.6044 24.7295C44.8418 23.9708 43.8304 23.5537 42.7549 23.5537ZM44.0884 28.9187C42.623 30.3978 41.1612 31.8805 39.6993 33.3631C37.2716 35.8257 34.7612 38.372 32.2758 40.8574C31.5408 41.5924 30.3448 41.5924 29.6101 40.8574L23.0406 34.2878C22.3058 33.5529 22.3058 32.357 23.0406 31.6221C23.3965 31.2662 23.8698 31.0702 24.3734 31.0702C24.8769 31.0702 25.3503 31.2662 25.7062 31.6221L30.1727 36.0886C30.3753 36.2912 30.6499 36.405 30.9364 36.405H30.9391C31.2265 36.4043 31.5018 36.289 31.7039 36.0849L41.4242 26.2678C41.776 25.9123 42.246 25.7155 42.7472 25.7136H42.7548C43.2555 25.7136 43.7263 25.9077 44.0814 26.2608C44.8146 26.9904 44.8179 28.1825 44.0884 28.9187Z" fill="#EA651B"/>
</svg>
