<svg width="30" height="22" viewBox="0 0 30 22" fill="none" xmlns="http://www.w3.org/2000/svg">
<path fill-rule="evenodd" clip-rule="evenodd" d="M28.5075 1.61631C29.4066 2.55106 29.7 4.67373 29.7 4.67373C29.7 4.67373 30 7.16703 30 9.65937V11.9967C30 14.49 29.7 16.9823 29.7 16.9823C29.7 16.9823 29.4066 19.105 28.5075 20.0398C27.4796 21.1455 26.3399 21.2598 25.6956 21.3244C25.6248 21.3315 25.5599 21.338 25.5019 21.3451C21.3037 21.657 15 21.6667 15 21.6667C15 21.6667 7.2 21.5935 4.8 21.3567C4.68629 21.3349 4.54845 21.3179 4.39235 21.2987C3.63212 21.205 2.43891 21.0581 1.49156 20.0398C0.5925 19.105 0.3 16.9823 0.3 16.9823C0.3 16.9823 0 14.49 0 11.9967V9.65937C0 7.16703 0.3 4.67373 0.3 4.67373C0.3 4.67373 0.5925 2.55106 1.49156 1.61631C2.52174 0.508974 3.66257 0.395958 4.30685 0.332133C4.3767 0.325213 4.44072 0.318871 4.49812 0.311903C8.69625 0 14.9934 0 14.9934 0H15.0066C15.0066 0 21.3037 0 25.5019 0.311903C25.5593 0.318882 25.6233 0.325232 25.6932 0.332164C26.337 0.395995 27.4783 0.509154 28.5075 1.61631ZM11.9019 6.17371L11.9028 14.829L20.0075 10.5163L11.9019 6.17371Z" fill="#474C50"/>
</svg>
